<svg width="66" height="66" viewBox="0 0 66 66" fill="none" xmlns="http://www.w3.org/2000/svg">
<path d="M59.2139 2.63989L36.5058 21.6044L40.7286 10.428L59.2139 2.63989Z" fill="#E17726" stroke="#E17726" stroke-width="0.25" stroke-linecap="round" stroke-linejoin="round"/>
<path d="M6.83493 2.63989L29.3407 21.7815L25.3203 10.428L6.83493 2.63989Z" fill="#E27625" stroke="#E27625" stroke-width="0.25" stroke-linecap="round" stroke-linejoin="round"/>
<path d="M51.0375 46.6123L44.9956 57.0302L57.9331 61.0508L61.6392 46.84L51.0375 46.6123Z" fill="#E27625" stroke="#E27625" stroke-width="0.25" stroke-linecap="round" stroke-linejoin="round"/>
<path d="M4.43149 46.84L8.11506 61.0508L21.0302 57.0302L15.0106 46.6123L4.43149 46.84Z" fill="#E27625" stroke="#E27625" stroke-width="0.25" stroke-linecap="round" stroke-linejoin="round"/>
<path d="M20.3338 29.0134L16.7401 35.1327L29.5427 35.7902L29.116 20.2393L20.3338 29.0134Z" fill="#E27625" stroke="#E27625" stroke-width="0.25" stroke-linecap="round" stroke-linejoin="round"/>
<path d="M45.7143 29.0136L36.7976 20.0623L36.5056 35.7902L49.3081 35.1328L45.7143 29.0136Z" fill="#E27625" stroke="#E27625" stroke-width="0.25" stroke-linecap="round" stroke-linejoin="round"/>
<path d="M21.0304 57.0302L28.7792 52.8075L22.1085 46.9412L21.0304 57.0302Z" fill="#E27625" stroke="#E27625" stroke-width="0.25" stroke-linecap="round" stroke-linejoin="round"/>
<path d="M37.2696 52.8075L44.996 57.0302L43.9403 46.9412L37.2696 52.8075Z" fill="#E27625" stroke="#E27625" stroke-width="0.25" stroke-linecap="round" stroke-linejoin="round"/>
<path d="M44.996 57.0305L37.2696 52.8079L37.8984 58.4719L37.8309 60.8741L44.996 57.0305Z" fill="#D5BFB2" stroke="#D5BFB2" stroke-width="0.25" stroke-linecap="round" stroke-linejoin="round"/>
<path d="M21.0304 57.0305L28.2179 60.8741L28.1729 58.4719L28.7792 52.8079L21.0304 57.0305Z" fill="#D5BFB2" stroke="#D5BFB2" stroke-width="0.25" stroke-linecap="round" stroke-linejoin="round"/>
<path d="M28.3524 43.1988L21.9285 41.0748L26.4655 38.7231L28.3524 43.1988Z" fill="#233447" stroke="#233447" stroke-width="0.25" stroke-linecap="round" stroke-linejoin="round"/>
<path d="M37.6962 43.1988L39.583 38.7231L44.1426 41.0748L37.6962 43.1988Z" fill="#233447" stroke="#233447" stroke-width="0.25" stroke-linecap="round" stroke-linejoin="round"/>
<path d="M21.0301 57.0302L22.1533 46.6123L15.0107 46.84L21.0301 57.0302Z" fill="#CC6228" stroke="#CC6228" stroke-width="0.25" stroke-linecap="round" stroke-linejoin="round"/>
<path d="M43.8952 46.6123L44.9958 57.0302L51.0378 46.84L43.8952 46.6123Z" fill="#CC6228" stroke="#CC6228" stroke-width="0.25" stroke-linecap="round" stroke-linejoin="round"/>
<path d="M49.3081 35.1326L36.5056 35.79L37.6959 43.199L39.5827 38.7232L44.1422 41.0748L49.3081 35.1326Z" fill="#CC6228" stroke="#CC6228" stroke-width="0.25" stroke-linecap="round" stroke-linejoin="round"/>
<path d="M21.9285 41.0748L26.4655 38.7232L28.3524 43.199L29.5427 35.79L16.7401 35.1326L21.9285 41.0748Z" fill="#CC6228" stroke="#CC6228" stroke-width="0.25" stroke-linecap="round" stroke-linejoin="round"/>
<path d="M16.7404 35.1326L22.1087 46.9413L21.9289 41.0748L16.7404 35.1326Z" fill="#E27525" stroke="#E27525" stroke-width="0.25" stroke-linecap="round" stroke-linejoin="round"/>
<path d="M44.1426 41.0748L43.9405 46.9413L49.3086 35.1326L44.1426 41.0748Z" fill="#E27525" stroke="#E27525" stroke-width="0.25" stroke-linecap="round" stroke-linejoin="round"/>
<path d="M29.5435 35.79L28.3529 43.199L29.8577 51.9479L30.1947 40.4174L29.5435 35.79Z" fill="#E27525" stroke="#E27525" stroke-width="0.25" stroke-linecap="round" stroke-linejoin="round"/>
<path d="M36.5058 35.79L35.8768 40.3922L36.1914 51.9479L37.6962 43.199L36.5058 35.79Z" fill="#E27525" stroke="#E27525" stroke-width="0.25" stroke-linecap="round" stroke-linejoin="round"/>
<path d="M37.6962 43.1991L36.1914 51.948L37.2695 52.8078L43.9404 46.9414L44.1426 41.075L37.6962 43.1991Z" fill="#F5841F" stroke="#F5841F" stroke-width="0.25" stroke-linecap="round" stroke-linejoin="round"/>
<path d="M21.9285 41.075L22.1083 46.9414L28.779 52.8078L29.8572 51.948L28.3524 43.1991L21.9285 41.075Z" fill="#F5841F" stroke="#F5841F" stroke-width="0.25" stroke-linecap="round" stroke-linejoin="round"/>
<path d="M37.8311 60.8741L37.8984 58.4719L37.3145 57.9155H28.7345L28.1729 58.4719L28.2179 60.8741L21.0304 57.0305L23.5459 59.3568L28.6446 63.3268H37.3818L42.5029 59.3568L44.996 57.0305L37.8311 60.8741Z" fill="#C0AC9D" stroke="#C0AC9D" stroke-width="0.25" stroke-linecap="round" stroke-linejoin="round"/>
<path d="M37.2694 52.8076L36.1912 51.948H29.8572L28.7792 52.8076L28.1728 58.4718L28.7342 57.9154H37.3143L37.8983 58.4718L37.2694 52.8076Z" fill="#161616" stroke="#161616" stroke-width="0.25" stroke-linecap="round" stroke-linejoin="round"/>
<path d="M60.1795 22.8434L62.0888 12.3751L59.2137 2.63989L37.2696 20.9724L45.7147 29.0132L57.6414 32.9327L60.2694 29.4685L59.124 28.5328L60.9432 26.6618L59.5507 25.448L61.37 23.8802L60.1795 22.8434Z" fill="#763E1A" stroke="#763E1A" stroke-width="0.25" stroke-linecap="round" stroke-linejoin="round"/>
<path d="M3.96001 12.3751L5.89165 22.8434L4.6563 23.8802L6.49808 25.448L5.10551 26.6618L6.92484 28.5328L5.77933 29.4685L8.40727 32.9327L20.334 29.0132L28.7792 20.9724L6.835 2.63989L3.96001 12.3751Z" fill="#763E1A" stroke="#763E1A" stroke-width="0.25" stroke-linecap="round" stroke-linejoin="round"/>
<path d="M57.6416 32.9326L45.7149 29.0134L49.3086 35.1327L43.9405 46.9412L51.0381 46.84H61.6396L57.6416 32.9326Z" fill="#F5841F" stroke="#F5841F" stroke-width="0.25" stroke-linecap="round" stroke-linejoin="round"/>
<path d="M20.3338 29.0134L8.40705 32.9326L4.43149 46.84H15.0106L22.1081 46.9412L16.7401 35.1327L20.3338 29.0134Z" fill="#F5841F" stroke="#F5841F" stroke-width="0.25" stroke-linecap="round" stroke-linejoin="round"/>
<path d="M36.5056 35.7902L37.2693 20.9725L40.7282 10.4282H25.3201L28.779 20.9725L29.5427 35.7902L29.8347 40.4428L29.8572 51.9481H36.1912L36.2136 40.4428L36.5056 35.7902Z" fill="#F5841F" stroke="#F5841F" stroke-width="0.25" stroke-linecap="round" stroke-linejoin="round"/>
</svg>
